<svg width="3846" xmlns="http://www.w3.org/2000/svg" height="3542" id="screenshot-c3513b1d-7f56-80df-8006-41320daee247" viewBox="0 0 3846 3542" xmlns:xlink="http://www.w3.org/1999/xlink" fill="none" version="1.1"><g id="shape-c3513b1d-7f56-80df-8006-41320daee247" rx="0" ry="0"><g id="shape-c3513b1d-7f56-80df-8006-41295fa729d5"><g class="fills" id="fills-c3513b1d-7f56-80df-8006-41295fa729d5"><path d="M3846.000,42.419L2989.590,292.692L2079.733,130.227L1137.639,552.722L682.499,1267.485L97.560,1884.683L0.000,2534.545L0.000,3542.000L0.000,0.000L3846.000,42.419Z" style="fill: rgb(0, 0, 0); fill-opacity: 1;"/></g><g id="strokes-d195635c-7a0f-807a-8006-4132bf052b9f-c3513b1d-7f56-80df-8006-41295fa729d5" class="strokes"><g class="inner-stroke-shape"><defs><clipPath id="inner-stroke-render-2-c3513b1d-7f56-80df-8006-41295fa729d5-0"><use href="#stroke-shape-render-2-c3513b1d-7f56-80df-8006-41295fa729d5-0"/></clipPath><path d="M3846.000,42.419L2989.590,292.692L2079.733,130.227L1137.639,552.722L682.499,1267.485L97.560,1884.683L0.000,2534.545L0.000,3542.000L0.000,0.000L3846.000,42.419Z" id="stroke-shape-render-2-c3513b1d-7f56-80df-8006-41295fa729d5-0" style="fill: none; stroke-width: 4; stroke: rgb(0, 0, 0); stroke-opacity: 1;"/></defs><use href="#stroke-shape-render-2-c3513b1d-7f56-80df-8006-41295fa729d5-0" clip-path="url('#inner-stroke-render-2-c3513b1d-7f56-80df-8006-41295fa729d5-0')"/></g></g></g><g id="shape-c3513b1d-7f56-80df-8006-412a94fb96b7"><g class="fills" id="fills-c3513b1d-7f56-80df-8006-412a94fb96b7"><path d="M105.856,2635.500L173.288,2061.283L781.448,1432.783L1194.097,763.571L2126.693,331.000L3019.000,499.787L2992.706,1717.347"/></g><g id="strokes-d195635c-7a0f-807a-8006-4132bf0631b0-c3513b1d-7f56-80df-8006-412a94fb96b7" class="strokes"><g class="stroke-shape"><path d="M105.856,2635.500L173.288,2061.283L781.448,1432.783L1194.097,763.571L2126.693,331.000L3019.000,499.787L2992.706,1717.347" style="fill: none; stroke-width: 53; stroke: rgb(0, 0, 0); stroke-opacity: 1;"/></g></g></g><g id="shape-c3513b1d-7f56-80df-8006-412ad8a54534"><g class="fills" id="fills-c3513b1d-7f56-80df-8006-412ad8a54534"><path d="M133.000,1766.642C133.000,1751.938,149.355,1740.000,169.500,1740.000L169.500,1740.000C189.645,1740.000,206.000,1751.938,206.000,1766.642L206.000,1995.725L206.000,2070.358C206.000,2085.062,189.645,2097.000,169.500,2097.000L169.500,2097.000C149.355,2097.000,133.000,2085.062,133.000,2070.358L133.000,1766.642Z" style="fill: rgb(0, 0, 0); fill-opacity: 1;"/></g></g><g id="shape-c3513b1d-7f56-80df-8006-412c2be4895f"><g class="fills" id="fills-c3513b1d-7f56-80df-8006-412c2be4895f"><path d="M743.000,1069.642C743.000,1052.178,759.355,1038.000,779.500,1038.000L779.500,1038.000C799.645,1038.000,816.000,1052.178,816.000,1069.642L816.000,1341.719L816.000,1430.358C816.000,1447.822,799.645,1462.000,779.500,1462.000L779.500,1462.000C759.355,1462.000,743.000,1447.822,743.000,1430.358L743.000,1069.642Z" style="fill: rgb(0, 0, 0); fill-opacity: 1;"/></g></g><g id="shape-c3513b1d-7f56-80df-8006-412c3660d54c"><g class="fills" id="fills-c3513b1d-7f56-80df-8006-412c3660d54c"><path d="M1151.000,420.642C1151.000,403.178,1167.355,389.000,1187.500,389.000L1187.500,389.000C1207.645,389.000,1224.000,403.178,1224.000,420.642L1224.000,692.719L1224.000,781.358C1224.000,798.822,1207.645,813.000,1187.500,813.000L1187.500,813.000C1167.355,813.000,1151.000,798.822,1151.000,781.358L1151.000,420.642Z" style="fill: rgb(0, 0, 0); fill-opacity: 1;"/></g></g><g id="shape-c3513b1d-7f56-80df-8006-412c3f81798e"><g class="fills" id="fills-c3513b1d-7f56-80df-8006-412c3f81798e"><path d="M2089.000,70.701C2089.000,57.068,2105.355,46.000,2125.500,46.000L2125.500,46.000C2145.645,46.000,2162.000,57.068,2162.000,70.701L2162.000,283.101L2162.000,352.299C2162.000,365.932,2145.645,377.000,2125.500,377.000L2125.500,377.000C2105.355,377.000,2089.000,365.932,2089.000,352.299L2089.000,70.701Z" style="fill: rgb(0, 0, 0); fill-opacity: 1;"/></g></g><g id="shape-c3513b1d-7f56-80df-8006-412c4855f503"><g class="fills" id="fills-c3513b1d-7f56-80df-8006-412c4855f503"><path d="M2983.000,162.642C2983.000,145.178,2999.355,131.000,3019.500,131.000L3019.500,131.000C3039.645,131.000,3056.000,145.178,3056.000,162.642L3056.000,434.719L3056.000,523.358C3056.000,540.822,3039.645,555.000,3019.500,555.000L3019.500,555.000C2999.355,555.000,2983.000,540.822,2983.000,523.358L2983.000,162.642Z" style="fill: rgb(0, 0, 0); fill-opacity: 1;"/></g></g><g id="shape-c3513b1d-7f56-80df-8006-412c5c120edb"><g class="fills" id="fills-c3513b1d-7f56-80df-8006-412c5c120edb"><path d="M3698.000,67.269C3698.000,55.530,3709.650,46.000,3724.000,46.000L3724.000,46.000C3738.350,46.000,3750.000,55.530,3750.000,67.269L3750.000,250.151L3750.000,309.731C3750.000,321.470,3738.350,331.000,3724.000,331.000L3724.000,331.000C3709.650,331.000,3698.000,321.470,3698.000,309.731L3698.000,67.269Z" style="fill: rgb(0, 0, 0); fill-opacity: 1;"/></g></g></g></svg>