<svg width="2744" xmlns="http://www.w3.org/2000/svg" height="3379" id="screenshot-c3513b1d-7f56-80df-8006-4132103c02cd" viewBox="0 0 2744 3379" xmlns:xlink="http://www.w3.org/1999/xlink" fill="none" version="1.1"><g id="shape-c3513b1d-7f56-80df-8006-4132103c02cd" rx="0" ry="0"><g id="shape-c3513b1d-7f56-80df-8006-41292afec633" rx="0" ry="0"><g id="shape-11b4ed17-3af5-80e3-8005-ed9ccaeb859f"><g class="fills" id="fills-11b4ed17-3af5-80e3-8005-ed9ccaeb859f"><rect rx="0" ry="0" x="1387.0550724637578" y="100.57731438661176" transform="matrix(1.000000, 0.000000, 0.000000, 1.000000, 0.000000, 0.000000)" width="59.936231884057634" height="3278.422685613388" style="fill: rgb(0, 0, 0); fill-opacity: 1;"/></g></g><g id="shape-11b4ed17-3af5-80e3-8005-ed9cdeabd725"><g class="fills" id="fills-11b4ed17-3af5-80e3-8005-ed9cdeabd725"><path d="M8.806,2382.603C8.806,2304.199,72.447,2240.544,150.835,2240.544L778.035,2378.057L1436.197,2439.426L2025.333,2347.656L2601.971,2240.544C2680.359,2240.544,2744.000,2304.199,2744.000,2382.603L2744.000,3236.942C2744.000,3315.346,2680.359,3379.000,2601.971,3379.000L150.835,3379.000C72.447,3379.000,8.806,3315.346,8.806,3236.942L8.806,2382.603Z" style="fill: rgb(0, 0, 0); fill-opacity: 1;"/></g></g><g id="shape-f0e2075a-051f-80df-8006-41206b88782a"><g class="fills" id="fills-f0e2075a-051f-80df-8006-41206b88782a"><path d="M0.000,113.647C0.000,50.923,50.913,0.000,113.623,0.000L2630.377,0.000C2693.087,0.000,2744.000,50.923,2744.000,113.647L2744.000,419.640C2744.000,482.364,2693.087,533.287,2630.377,533.287L1419.722,408.844L113.623,533.287C50.913,533.287,0.000,482.364,0.000,419.640L0.000,113.647Z" style="fill: rgb(0, 0, 0); fill-opacity: 1;"/></g></g><g id="shape-f0e2075a-051f-80df-8006-4120e43e606f"><g class="fills" id="fills-f0e2075a-051f-80df-8006-4120e43e606f"><path d="M1822.232,382.989L1915.687,842.990L1805.188,1462.050L1652.649,1966.184L1440.458,2249.352"/></g><g id="strokes-2b8371c1-191b-80e0-8006-4132c5581a1a-f0e2075a-051f-80df-8006-4120e43e606f" class="strokes"><g class="stroke-shape"><path d="M1822.232,382.989L1915.687,842.990L1805.188,1462.050L1652.649,1966.184L1440.458,2249.352" style="fill: none; stroke-width: 96; stroke: rgb(0, 0, 0); stroke-opacity: 1;"/></g></g></g><g id="shape-f0e2075a-051f-80df-8006-41210f9ca6bb"><g class="fills" id="fills-f0e2075a-051f-80df-8006-41210f9ca6bb"><path d="M1010.678,382.989L917.223,842.990L1027.722,1462.050L1180.261,1966.184L1392.452,2249.352"/></g><g id="strokes-2b8371c1-191b-80e0-8006-4132c55913a7-f0e2075a-051f-80df-8006-41210f9ca6bb" class="strokes"><g class="stroke-shape"><path d="M1010.678,382.989L917.223,842.990L1027.722,1462.050L1180.261,1966.184L1392.452,2249.352" style="fill: none; stroke-width: 96; stroke: rgb(0, 0, 0); stroke-opacity: 1;"/></g></g></g><g id="shape-f0e2075a-051f-80df-8006-412139450799"><g class="fills" id="fills-f0e2075a-051f-80df-8006-412139450799"><path d="M2259.397,491.238L2293.484,864.567L2166.226,1466.895L1988.122,2094.792L1445.003,2417.265"/></g><g id="strokes-2b8371c1-191b-80e0-8006-4132c559ae2b-f0e2075a-051f-80df-8006-412139450799" class="strokes"><g class="stroke-shape"><path d="M2259.397,491.238L2293.484,864.567L2166.226,1466.895L1988.122,2094.792L1445.003,2417.265" style="fill: none; stroke-width: 96; stroke: rgb(0, 0, 0); stroke-opacity: 1;"/></g></g></g><g id="shape-f0e2075a-051f-80df-8006-41217286d900"><g class="fills" id="fills-f0e2075a-051f-80df-8006-41217286d900"><path d="M571.241,491.238L537.154,864.567L664.412,1466.895L842.516,2094.792L1385.635,2417.265"/></g><g id="strokes-2b8371c1-191b-80e0-8006-4132c55a3765-f0e2075a-051f-80df-8006-41217286d900" class="strokes"><g class="stroke-shape"><path d="M571.241,491.238L537.154,864.567L664.412,1466.895L842.516,2094.792L1385.635,2417.265" style="fill: none; stroke-width: 96; stroke: rgb(0, 0, 0); stroke-opacity: 1;"/></g></g></g></g></g></svg>