<svg width="4610" xmlns="http://www.w3.org/2000/svg" height="4610" id="screenshot-f47ba80b-02be-80f7-8006-43a34bfd6fa2" viewBox="0 0 4610 4610" xmlns:xlink="http://www.w3.org/1999/xlink" fill="none" version="1.1"><g id="shape-f47ba80b-02be-80f7-8006-43a34bfd6fa2" rx="0" ry="0"><g clip-path="url(#render-1-9da0c00d-ba90-80c7-8006-4261f9257692-clip)"><g mask="url(#render-1-9da0c00d-ba90-80c7-8006-4261f9257692-mask)"><defs><filter id="render-1-9da0c00d-ba90-80c7-8006-4261f9257692-filter"><feFlood flood-color="white" result="FloodResult"/><feComposite in="FloodResult" in2="SourceGraphic" operator="in" result="comp"/></filter><clipPath id="render-1-9da0c00d-ba90-80c7-8006-4261f9257692-clip" class="mask-clip-path"><polyline points="0,0 4610,0 4610,4609.999999999999 0,4609.999999999999"/></clipPath><mask width="4610" maskUnits="userSpaceOnUse" height="4609.999999999999" class="mask-shape" x="0" id="render-1-9da0c00d-ba90-80c7-8006-4261f9257692-mask" data-old-y="0" data-old-width="4610" data-old-x="0" y="0" data-old-height="4609.999999999999"><g filter="url(#render-1-9da0c00d-ba90-80c7-8006-4261f9257692-filter)"><g id="shape-9da0c00d-ba90-80c7-8006-4261f9257692"><g class="fills" id="fills-9da0c00d-ba90-80c7-8006-4261f9257692"><ellipse cx="2305" cy="2304.9999999999995" rx="2305" ry="2304.9999999999995" transform="matrix(1.000000, 0.000000, 0.000000, 1.000000, 0.000000, 0.000000)" style="fill: rgb(255, 255, 255); fill-opacity: 1;"/></g></g></g></mask></defs><g id="shape-f47ba80b-02be-80f7-8006-43a31055a3a4" width="41.59" height="85" rx="0" ry="0" style="fill: rgb(0, 0, 0);"><g id="shape-f47ba80b-02be-80f7-8006-43a310563bd3" style="display: none;"><g class="fills" id="fills-f47ba80b-02be-80f7-8006-43a310563bd3"><rect width="2090.7827629377425" height="4271" x="-22" transform="matrix(1.000000, 0.000000, 0.000000, 1.000000, 0.000000, 0.000000)" style="fill: none;" ry="0" fill="none" rx="0" y="-337"/></g></g><g id="shape-f47ba80b-02be-80f7-8006-43a31057da3e" rx="0" ry="0" style="opacity: 1; fill: rgb(0, 0, 0); fill-opacity: 1;"><g id="shape-f47ba80b-02be-80f7-8006-43a31056731d"><g class="fills" id="fills-f47ba80b-02be-80f7-8006-43a31056731d"><path d="M633.538,3114.470L296.217,3114.470L296.217,482.530L691.852,482.530L1763.133,2165.806C1791.285,2209.353,1825.470,2265.295,1865.687,2333.631C1905.569,2401.967,1948.802,2479.180,1995.387,2565.270C2041.971,2651.025,2087.718,2742.810,2132.627,2840.624L2132.627,2840.624L2084.870,2840.624C2074.145,2739.460,2066.437,2642.651,2061.745,2550.196C2057.053,2457.741,2054.037,2372.656,2052.696,2294.941C2051.691,2217.225,2051.188,2151.234,2051.188,2096.968L2051.188,2096.968L2051.188,482.530L2387.000,482.530L2387.000,3114.470L1987.343,3114.470L1033.194,1616.606C989.626,1546.930,945.722,1475.411,901.484,1402.051C857.245,1328.355,806.806,1241.093,750.167,1140.264C693.863,1039.769,623.818,915.324,540.033,766.928L540.033,766.928L601.867,766.928C607.899,897.570,613.261,1018.163,617.953,1128.707C622.645,1239.585,626.500,1336.227,629.516,1418.632C632.197,1501.037,633.538,1565.856,633.538,1613.088L633.538,1613.088L633.538,3114.470ZZ"/></g></g></g></g><g id="shape-f47ba80b-02be-80f7-8006-43a3148f371e" width="36.703" height="85" rx="0" ry="0" style="fill: rgb(0, 0, 0);"><g id="shape-f47ba80b-02be-80f7-8006-43a3148ffe34" style="display: none;"><g class="fills" id="fills-f47ba80b-02be-80f7-8006-43a3148ffe34"><rect width="1844.9590750638454" height="4270.999999999999" x="2291" transform="matrix(1.000000, 0.000000, 0.000000, 1.000000, 0.000000, 0.000000)" style="fill: none;" ry="0" fill="none" rx="0" y="868"/></g></g><g id="shape-f47ba80b-02be-80f7-8006-43a314917351" rx="0" ry="0" style="opacity: 1; fill: rgb(0, 0, 0); fill-opacity: 1;"><g id="shape-f47ba80b-02be-80f7-8006-43a314903d62"><g class="fills" id="fills-f47ba80b-02be-80f7-8006-43a314903d62"><path d="M3572.312,4319.470L2609.192,4319.470L2609.192,1687.530L3542.152,1687.530C3726.130,1687.530,3877.770,1719.018,3997.071,1781.994C4116.707,1844.970,4205.680,1929.218,4263.990,2034.737C4322.300,2139.921,4351.455,2256.661,4351.455,2384.959L4351.455,2384.959C4351.455,2498.182,4331.515,2591.642,4291.637,2665.337C4251.423,2738.698,4198.642,2797.152,4133.295,2840.700C4067.947,2884.247,3996.903,2916.740,3920.162,2938.179L3920.162,2938.179L3920.162,2962.800C4002.935,2967.490,4085.206,2995.795,4166.974,3047.717C4248.742,3099.304,4317.106,3172.833,4372.064,3268.302C4426.688,3363.771,4454.000,3480.345,4454.000,3618.022L4454.000,3618.022C4454.000,3750.004,4423.672,3868.922,4363.016,3974.776C4302.360,4080.964,4207.188,4164.877,4077.498,4226.513C3948.144,4288.485,3779.749,4319.470,3572.312,4319.470ZL3572.312,4319.470ZZM2944.977,3125.098L2944.977,4022.510L3563.264,4022.510C3768.355,4022.510,3914.130,3983.150,4000.589,3904.430C4087.384,3825.374,4130.782,3728.733,4130.782,3614.504L4130.782,3614.504C4130.782,3526.404,4108.329,3445.172,4063.423,3370.806C4018.853,3296.775,3955.516,3237.316,3873.413,3192.429C3791.645,3147.542,3694.127,3125.098,3580.858,3125.098L3580.858,3125.098L2944.977,3125.098ZZM2944.977,1983.987L2944.977,2842.709L3524.558,2842.709C3618.726,2842.709,3704.180,2824.118,3780.921,2786.935C3857.328,2749.752,3917.983,2697.328,3962.889,2629.662C4007.459,2561.996,4029.744,2482.773,4029.744,2391.993L4029.744,2391.993C4029.744,2277.765,3990.033,2181.291,3910.611,2102.570C3831.189,2023.515,3706.023,1983.987,3535.115,1983.987L3535.115,1983.987L2944.977,1983.987ZZ"/></g></g></g></g></g></g></g></svg>