<svg width="3432" xmlns="http://www.w3.org/2000/svg" height="3362" id="screenshot-c3513b1d-7f56-80df-8006-41321291806b" viewBox="0 0 3432 3362" xmlns:xlink="http://www.w3.org/1999/xlink" fill="none" version="1.1"><g id="shape-c3513b1d-7f56-80df-8006-41321291806b" rx="0" ry="0"><g id="shape-c3513b1d-7f56-80df-8006-4129198de2e3" rx="0" ry="0"><g id="shape-c3513b1d-7f56-80df-8006-4127aabf899b"><g class="fills" id="fills-c3513b1d-7f56-80df-8006-4127aabf899b"><path d="M1633.723,1459.915C1633.723,1459.915,601.863,1384.702,375.142,1485.355C148.420,1586.007,-52.311,3071.463,173.857,3146.676C400.026,3221.889,3018.384,3524.400,3194.231,3247.329C3370.079,2970.258,3521.042,1636.333,3370.079,1535.681C3219.115,1435.028,1633.723,1459.915,1633.723,1459.915Z" style="fill: rgb(0, 0, 0); fill-opacity: 1;"/></g><g id="strokes-493c092c-8d27-807b-8006-4132cb7b1f13-c3513b1d-7f56-80df-8006-4127aabf899b" class="strokes"><g class="stroke-shape"><path d="M1633.723,1459.915C1633.723,1459.915,601.863,1384.702,375.142,1485.355C148.420,1586.007,-52.311,3071.463,173.857,3146.676C400.026,3221.889,3018.384,3524.400,3194.231,3247.329C3370.079,2970.258,3521.042,1636.333,3370.079,1535.681C3219.115,1435.028,1633.723,1459.915,1633.723,1459.915Z" style="fill: none; stroke-width: 200; stroke: rgb(0, 0, 0); stroke-opacity: 1;"/></g></g></g><g id="shape-f0e2075a-051f-80df-8006-412733308263"><g class="fills" id="fills-f0e2075a-051f-80df-8006-412733308263"><rect rx="145.17044903307215" ry="145.17044903307215" x="922.91828749876" y="461.86348562798776" transform="matrix(0.943676, -0.330870, 0.330809, 0.943698, -104.119958, 602.191596)" width="1587.6220468440442" height="290.3408980661443" style="fill: rgb(0, 0, 0); fill-opacity: 1;"/></g></g><g id="shape-c3513b1d-7f56-80df-8006-4128da1e8b4c"><g class="fills" id="fills-c3513b1d-7f56-80df-8006-4128da1e8b4c"><rect rx="38.712119742152936" ry="38.712119742152936" x="-85.81802572398738" y="577.1834292987046" transform="matrix(0.943676, -0.330870, 0.330809, 0.943698, -109.953144, 585.644765)" width="3502.0586634145584" height="77.42423948430587" style="fill: rgb(0, 0, 0); fill-opacity: 1;"/></g></g><g id="shape-f0e2075a-051f-80df-8006-4127542381e4"><g class="fills" id="fills-f0e2075a-051f-80df-8006-4127542381e4"><rect rx="145.15711690571698" ry="145.15711690571698" x="1431.240278815094" y="925.8693202613358" transform="matrix(-0.000491, 1.000000, -1.000000, -0.000491, 2836.890277, -693.445472)" width="667.5150845417811" height="290.31423381143395" style="fill: rgb(0, 0, 0); fill-opacity: 1;"/></g></g><g id="shape-c3513b1d-7f56-80df-8006-41280ff7c0d4"><g class="fills" id="fills-c3513b1d-7f56-80df-8006-41280ff7c0d4"><path d="M3237.896,1588.322C3093.852,1555.267,2714.146,1558.493,2610.239,1584.415C2506.332,1610.336,2425.910,2386.642,2523.033,2387.327C2620.157,2388.012,3225.470,2446.376,3281.709,2371.502C3337.948,2296.628,3381.939,1621.376,3237.896,1588.322Z" style="fill: rgb(255, 255, 255); fill-opacity: 1;"/></g></g><g id="shape-c3513b1d-7f56-80df-8006-41280ff7c0d3"><g class="fills" id="fills-c3513b1d-7f56-80df-8006-41280ff7c0d3"><path d="M278.766,2314.603C127.803,2289.164,253.882,1559.708,404.846,1534.269C555.809,1508.829,908.057,1533.716,1084.457,1559.155C1260.858,1584.595,1310.626,2339.490,1109.342,2364.930C908.057,2390.369,429.730,2340.043,278.766,2314.603Z" style="fill: rgb(255, 255, 255); fill-opacity: 1;"/></g></g></g></g></svg>